<svg width="808" height="112" viewBox="0 0 808 112" fill="none" xmlns="http://www.w3.org/2000/svg">
<mask id="path-1-outside-1_362_41" maskUnits="userSpaceOnUse" x="0" y="0" width="808" height="112" fill="black">
<rect fill="white" width="808" height="112"/>
<path d="M5 104.96V6.96H39.3L56.24 92.36H58.76L75.7 6.96H110V104.96H92.08V20.54H89.56L72.76 104.96H42.24L25.44 20.54H22.92V104.96H5Z"/>
<path d="M129.017 104.96V35.52H146.657V104.96H129.017ZM137.837 27.4C134.664 27.4 131.957 26.3733 129.717 24.32C127.57 22.2667 126.497 19.56 126.497 16.2C126.497 12.84 127.57 10.1333 129.717 8.08C131.957 6.02667 134.664 5 137.837 5C141.104 5 143.81 6.02667 145.957 8.08C148.104 10.1333 149.177 12.84 149.177 16.2C149.177 19.56 148.104 22.2667 145.957 24.32C143.81 26.3733 141.104 27.4 137.837 27.4Z"/>
<path d="M166.205 104.96V35.52H183.565V44.62H186.085C187.205 42.1933 189.305 39.9067 192.385 37.76C195.465 35.52 200.131 34.4 206.385 34.4C211.798 34.4 216.511 35.66 220.525 38.18C224.631 40.6067 227.805 44.0133 230.045 48.4C232.285 52.6933 233.405 57.7333 233.405 63.52V104.96H215.765V64.92C215.765 59.6933 214.458 55.7733 211.845 53.16C209.325 50.5467 205.685 49.24 200.925 49.24C195.511 49.24 191.311 51.06 188.325 54.7C185.338 58.2467 183.845 63.24 183.845 69.68V104.96H166.205Z"/>
<path d="M252.474 104.96V35.52H270.114V104.96H252.474ZM261.294 27.4C258.121 27.4 255.414 26.3733 253.174 24.32C251.027 22.2667 249.954 19.56 249.954 16.2C249.954 12.84 251.027 10.1333 253.174 8.08C255.414 6.02667 258.121 5 261.294 5C264.561 5 267.267 6.02667 269.414 8.08C271.561 10.1333 272.634 12.84 272.634 16.2C272.634 19.56 271.561 22.2667 269.414 24.32C267.267 26.3733 264.561 27.4 261.294 27.4Z"/>
<path d="M289.102 104.96V6.96H350.702V23.76H307.582V47.42H347.342V64.22H307.582V104.96H289.102Z"/>
<path d="M364.447 104.96V35.52H382.087V104.96H364.447ZM373.267 27.4C370.093 27.4 367.387 26.3733 365.147 24.32C363 22.2667 361.927 19.56 361.927 16.2C361.927 12.84 363 10.1333 365.147 8.08C367.387 6.02667 370.093 5 373.267 5C376.533 5 379.24 6.02667 381.387 8.08C383.533 10.1333 384.607 12.84 384.607 16.2C384.607 19.56 383.533 22.2667 381.387 24.32C379.24 26.3733 376.533 27.4 373.267 27.4Z"/>
<path d="M401.634 104.96V35.52H418.994V44.62H421.514C422.634 42.1933 424.734 39.9067 427.814 37.76C430.894 35.52 435.561 34.4 441.814 34.4C447.228 34.4 451.941 35.66 455.954 38.18C460.061 40.6067 463.234 44.0133 465.474 48.4C467.714 52.6933 468.834 57.7333 468.834 63.52V104.96H451.194V64.92C451.194 59.6933 449.888 55.7733 447.274 53.16C444.754 50.5467 441.114 49.24 436.354 49.24C430.941 49.24 426.741 51.06 423.754 54.7C420.768 58.2467 419.274 63.24 419.274 69.68V104.96H401.634Z"/>
<path d="M509.464 106.92C504.517 106.92 500.084 106.08 496.164 104.4C492.244 102.627 489.117 100.107 486.784 96.84C484.544 93.48 483.424 89.42 483.424 84.66C483.424 79.9 484.544 75.9333 486.784 72.76C489.117 69.4933 492.29 67.0667 496.304 65.48C500.41 63.8 505.077 62.96 510.304 62.96H529.344V59.04C529.344 55.7733 528.317 53.1133 526.264 51.06C524.21 48.9133 520.944 47.84 516.464 47.84C512.077 47.84 508.81 48.8667 506.664 50.92C504.517 52.88 503.117 55.4467 502.464 58.62L486.224 53.16C487.344 49.6133 489.117 46.3933 491.544 43.5C494.064 40.5133 497.377 38.1333 501.484 36.36C505.684 34.4933 510.77 33.56 516.744 33.56C525.89 33.56 533.124 35.8467 538.444 40.42C543.764 44.9933 546.424 51.62 546.424 60.3V86.2C546.424 89 547.73 90.4 550.344 90.4H555.944V104.96H544.184C540.73 104.96 537.884 104.12 535.644 102.44C533.404 100.76 532.284 98.52 532.284 95.72V95.58H529.624C529.25 96.7 528.41 98.1933 527.104 100.06C525.797 101.833 523.744 103.42 520.944 104.82C518.144 106.22 514.317 106.92 509.464 106.92ZM512.544 92.64C517.49 92.64 521.504 91.2867 524.584 88.58C527.757 85.78 529.344 82.0933 529.344 77.52V76.12H511.564C508.297 76.12 505.73 76.82 503.864 78.22C501.997 79.62 501.064 81.58 501.064 84.1C501.064 86.62 502.044 88.6733 504.004 90.26C505.964 91.8467 508.81 92.64 512.544 92.64Z"/>
<path d="M568.841 104.96V35.52H586.201V44.62H588.721C589.841 42.1933 591.941 39.9067 595.021 37.76C598.101 35.52 602.768 34.4 609.021 34.4C614.435 34.4 619.148 35.66 623.161 38.18C627.268 40.6067 630.441 44.0133 632.681 48.4C634.921 52.6933 636.041 57.7333 636.041 63.52V104.96H618.401V64.92C618.401 59.6933 617.095 55.7733 614.481 53.16C611.961 50.5467 608.321 49.24 603.561 49.24C598.148 49.24 593.948 51.06 590.961 54.7C587.975 58.2467 586.481 63.24 586.481 69.68V104.96H568.841Z"/>
<path d="M687.731 106.92C681.011 106.92 674.897 105.52 669.391 102.72C663.977 99.92 659.684 95.86 656.511 90.54C653.337 85.22 651.751 78.78 651.751 71.22V69.26C651.751 61.7 653.337 55.26 656.511 49.94C659.684 44.62 663.977 40.56 669.391 37.76C674.897 34.96 681.011 33.56 687.731 33.56C694.357 33.56 700.051 34.7267 704.811 37.06C709.571 39.3933 713.397 42.6133 716.291 46.72C719.277 50.7333 721.237 55.3067 722.171 60.44L705.091 64.08C704.717 61.28 703.877 58.76 702.571 56.52C701.264 54.28 699.397 52.5067 696.971 51.2C694.637 49.8933 691.697 49.24 688.151 49.24C684.604 49.24 681.384 50.0333 678.491 51.62C675.691 53.1133 673.451 55.4 671.771 58.48C670.184 61.4667 669.391 65.1533 669.391 69.54V70.94C669.391 75.3267 670.184 79.06 671.771 82.14C673.451 85.1267 675.691 87.4133 678.491 89C681.384 90.4933 684.604 91.24 688.151 91.24C693.471 91.24 697.484 89.8867 700.191 87.18C702.991 84.38 704.764 80.74 705.511 76.26L722.591 80.32C721.377 85.2667 719.277 89.7933 716.291 93.9C713.397 97.9133 709.571 101.087 704.811 103.42C700.051 105.753 694.357 106.92 687.731 106.92Z"/>
<path d="M768.782 106.92C761.875 106.92 755.762 105.473 750.442 102.58C745.215 99.5933 741.109 95.44 738.122 90.12C735.229 84.7067 733.782 78.36 733.782 71.08V69.4C733.782 62.12 735.229 55.82 738.122 50.5C741.015 45.0867 745.075 40.9333 750.302 38.04C755.529 35.0533 761.595 33.56 768.502 33.56C775.315 33.56 781.242 35.1 786.282 38.18C791.322 41.1667 795.242 45.3667 798.042 50.78C800.842 56.1 802.242 62.3067 802.242 69.4V75.42H751.702C751.889 80.18 753.662 84.0533 757.022 87.04C760.382 90.0267 764.489 91.52 769.342 91.52C774.289 91.52 777.929 90.4467 780.262 88.3C782.595 86.1533 784.369 83.7733 785.582 81.16L800.002 88.72C798.695 91.1467 796.782 93.8067 794.262 96.7C791.835 99.5 788.569 101.927 784.462 103.98C780.355 105.94 775.129 106.92 768.782 106.92ZM751.842 62.26H784.322C783.949 58.2467 782.315 55.0267 779.422 52.6C776.622 50.1733 772.935 48.96 768.362 48.96C763.602 48.96 759.822 50.1733 757.022 52.6C754.222 55.0267 752.495 58.2467 751.842 62.26Z"/>
</mask>
<path d="M5 104.96V6.96H39.3L56.24 92.36H58.76L75.7 6.96H110V104.96H92.08V20.54H89.56L72.76 104.96H42.24L25.44 20.54H22.92V104.96H5Z" fill="white"/>
<path d="M129.017 104.96V35.52H146.657V104.96H129.017ZM137.837 27.4C134.664 27.4 131.957 26.3733 129.717 24.32C127.57 22.2667 126.497 19.56 126.497 16.2C126.497 12.84 127.57 10.1333 129.717 8.08C131.957 6.02667 134.664 5 137.837 5C141.104 5 143.81 6.02667 145.957 8.08C148.104 10.1333 149.177 12.84 149.177 16.2C149.177 19.56 148.104 22.2667 145.957 24.32C143.81 26.3733 141.104 27.4 137.837 27.4Z" fill="white"/>
<path d="M166.205 104.96V35.52H183.565V44.62H186.085C187.205 42.1933 189.305 39.9067 192.385 37.76C195.465 35.52 200.131 34.4 206.385 34.4C211.798 34.4 216.511 35.66 220.525 38.18C224.631 40.6067 227.805 44.0133 230.045 48.4C232.285 52.6933 233.405 57.7333 233.405 63.52V104.96H215.765V64.92C215.765 59.6933 214.458 55.7733 211.845 53.16C209.325 50.5467 205.685 49.24 200.925 49.24C195.511 49.24 191.311 51.06 188.325 54.7C185.338 58.2467 183.845 63.24 183.845 69.68V104.96H166.205Z" fill="white"/>
<path d="M252.474 104.96V35.52H270.114V104.96H252.474ZM261.294 27.4C258.121 27.4 255.414 26.3733 253.174 24.32C251.027 22.2667 249.954 19.56 249.954 16.2C249.954 12.84 251.027 10.1333 253.174 8.08C255.414 6.02667 258.121 5 261.294 5C264.561 5 267.267 6.02667 269.414 8.08C271.561 10.1333 272.634 12.84 272.634 16.2C272.634 19.56 271.561 22.2667 269.414 24.32C267.267 26.3733 264.561 27.4 261.294 27.4Z" fill="white"/>
<path d="M289.102 104.96V6.96H350.702V23.76H307.582V47.42H347.342V64.22H307.582V104.96H289.102Z" fill="white"/>
<path d="M364.447 104.96V35.52H382.087V104.96H364.447ZM373.267 27.4C370.093 27.4 367.387 26.3733 365.147 24.32C363 22.2667 361.927 19.56 361.927 16.2C361.927 12.84 363 10.1333 365.147 8.08C367.387 6.02667 370.093 5 373.267 5C376.533 5 379.24 6.02667 381.387 8.08C383.533 10.1333 384.607 12.84 384.607 16.2C384.607 19.56 383.533 22.2667 381.387 24.32C379.24 26.3733 376.533 27.4 373.267 27.4Z" fill="white"/>
<path d="M401.634 104.96V35.52H418.994V44.62H421.514C422.634 42.1933 424.734 39.9067 427.814 37.76C430.894 35.52 435.561 34.4 441.814 34.4C447.228 34.4 451.941 35.66 455.954 38.18C460.061 40.6067 463.234 44.0133 465.474 48.4C467.714 52.6933 468.834 57.7333 468.834 63.52V104.96H451.194V64.92C451.194 59.6933 449.888 55.7733 447.274 53.16C444.754 50.5467 441.114 49.24 436.354 49.24C430.941 49.24 426.741 51.06 423.754 54.7C420.768 58.2467 419.274 63.24 419.274 69.68V104.96H401.634Z" fill="white"/>
<path d="M509.464 106.92C504.517 106.92 500.084 106.08 496.164 104.4C492.244 102.627 489.117 100.107 486.784 96.84C484.544 93.48 483.424 89.42 483.424 84.66C483.424 79.9 484.544 75.9333 486.784 72.76C489.117 69.4933 492.29 67.0667 496.304 65.48C500.41 63.8 505.077 62.96 510.304 62.96H529.344V59.04C529.344 55.7733 528.317 53.1133 526.264 51.06C524.21 48.9133 520.944 47.84 516.464 47.84C512.077 47.84 508.81 48.8667 506.664 50.92C504.517 52.88 503.117 55.4467 502.464 58.62L486.224 53.16C487.344 49.6133 489.117 46.3933 491.544 43.5C494.064 40.5133 497.377 38.1333 501.484 36.36C505.684 34.4933 510.77 33.56 516.744 33.56C525.89 33.56 533.124 35.8467 538.444 40.42C543.764 44.9933 546.424 51.62 546.424 60.3V86.2C546.424 89 547.73 90.4 550.344 90.4H555.944V104.96H544.184C540.73 104.96 537.884 104.12 535.644 102.44C533.404 100.76 532.284 98.52 532.284 95.72V95.58H529.624C529.25 96.7 528.41 98.1933 527.104 100.06C525.797 101.833 523.744 103.42 520.944 104.82C518.144 106.22 514.317 106.92 509.464 106.92ZM512.544 92.64C517.49 92.64 521.504 91.2867 524.584 88.58C527.757 85.78 529.344 82.0933 529.344 77.52V76.12H511.564C508.297 76.12 505.73 76.82 503.864 78.22C501.997 79.62 501.064 81.58 501.064 84.1C501.064 86.62 502.044 88.6733 504.004 90.26C505.964 91.8467 508.81 92.64 512.544 92.64Z" fill="white"/>
<path d="M568.841 104.96V35.52H586.201V44.62H588.721C589.841 42.1933 591.941 39.9067 595.021 37.76C598.101 35.52 602.768 34.4 609.021 34.4C614.435 34.4 619.148 35.66 623.161 38.18C627.268 40.6067 630.441 44.0133 632.681 48.4C634.921 52.6933 636.041 57.7333 636.041 63.52V104.96H618.401V64.92C618.401 59.6933 617.095 55.7733 614.481 53.16C611.961 50.5467 608.321 49.24 603.561 49.24C598.148 49.24 593.948 51.06 590.961 54.7C587.975 58.2467 586.481 63.24 586.481 69.68V104.96H568.841Z" fill="white"/>
<path d="M687.731 106.92C681.011 106.92 674.897 105.52 669.391 102.72C663.977 99.92 659.684 95.86 656.511 90.54C653.337 85.22 651.751 78.78 651.751 71.22V69.26C651.751 61.7 653.337 55.26 656.511 49.94C659.684 44.62 663.977 40.56 669.391 37.76C674.897 34.96 681.011 33.56 687.731 33.56C694.357 33.56 700.051 34.7267 704.811 37.06C709.571 39.3933 713.397 42.6133 716.291 46.72C719.277 50.7333 721.237 55.3067 722.171 60.44L705.091 64.08C704.717 61.28 703.877 58.76 702.571 56.52C701.264 54.28 699.397 52.5067 696.971 51.2C694.637 49.8933 691.697 49.24 688.151 49.24C684.604 49.24 681.384 50.0333 678.491 51.62C675.691 53.1133 673.451 55.4 671.771 58.48C670.184 61.4667 669.391 65.1533 669.391 69.54V70.94C669.391 75.3267 670.184 79.06 671.771 82.14C673.451 85.1267 675.691 87.4133 678.491 89C681.384 90.4933 684.604 91.24 688.151 91.24C693.471 91.24 697.484 89.8867 700.191 87.18C702.991 84.38 704.764 80.74 705.511 76.26L722.591 80.32C721.377 85.2667 719.277 89.7933 716.291 93.9C713.397 97.9133 709.571 101.087 704.811 103.42C700.051 105.753 694.357 106.92 687.731 106.92Z" fill="white"/>
<path d="M768.782 106.92C761.875 106.92 755.762 105.473 750.442 102.58C745.215 99.5933 741.109 95.44 738.122 90.12C735.229 84.7067 733.782 78.36 733.782 71.08V69.4C733.782 62.12 735.229 55.82 738.122 50.5C741.015 45.0867 745.075 40.9333 750.302 38.04C755.529 35.0533 761.595 33.56 768.502 33.56C775.315 33.56 781.242 35.1 786.282 38.18C791.322 41.1667 795.242 45.3667 798.042 50.78C800.842 56.1 802.242 62.3067 802.242 69.4V75.42H751.702C751.889 80.18 753.662 84.0533 757.022 87.04C760.382 90.0267 764.489 91.52 769.342 91.52C774.289 91.52 777.929 90.4467 780.262 88.3C782.595 86.1533 784.369 83.7733 785.582 81.16L800.002 88.72C798.695 91.1467 796.782 93.8067 794.262 96.7C791.835 99.5 788.569 101.927 784.462 103.98C780.355 105.94 775.129 106.92 768.782 106.92ZM751.842 62.26H784.322C783.949 58.2467 782.315 55.0267 779.422 52.6C776.622 50.1733 772.935 48.96 768.362 48.96C763.602 48.96 759.822 50.1733 757.022 52.6C754.222 55.0267 752.495 58.2467 751.842 62.26Z" fill="white"/>
<path d="M5 104.96V6.96H39.3L56.24 92.36H58.76L75.7 6.96H110V104.96H92.08V20.54H89.56L72.76 104.96H42.24L25.44 20.54H22.92V104.96H5Z" stroke="black" stroke-width="10" mask="url(#path-1-outside-1_362_41)"/>
<path d="M129.017 104.96V35.52H146.657V104.96H129.017ZM137.837 27.4C134.664 27.4 131.957 26.3733 129.717 24.32C127.57 22.2667 126.497 19.56 126.497 16.2C126.497 12.84 127.57 10.1333 129.717 8.08C131.957 6.02667 134.664 5 137.837 5C141.104 5 143.81 6.02667 145.957 8.08C148.104 10.1333 149.177 12.84 149.177 16.2C149.177 19.56 148.104 22.2667 145.957 24.32C143.81 26.3733 141.104 27.4 137.837 27.4Z" stroke="black" stroke-width="10" mask="url(#path-1-outside-1_362_41)"/>
<path d="M166.205 104.96V35.52H183.565V44.62H186.085C187.205 42.1933 189.305 39.9067 192.385 37.76C195.465 35.52 200.131 34.4 206.385 34.4C211.798 34.4 216.511 35.66 220.525 38.18C224.631 40.6067 227.805 44.0133 230.045 48.4C232.285 52.6933 233.405 57.7333 233.405 63.52V104.96H215.765V64.92C215.765 59.6933 214.458 55.7733 211.845 53.16C209.325 50.5467 205.685 49.24 200.925 49.24C195.511 49.24 191.311 51.06 188.325 54.7C185.338 58.2467 183.845 63.24 183.845 69.68V104.96H166.205Z" stroke="black" stroke-width="10" mask="url(#path-1-outside-1_362_41)"/>
<path d="M252.474 104.96V35.52H270.114V104.96H252.474ZM261.294 27.4C258.121 27.4 255.414 26.3733 253.174 24.32C251.027 22.2667 249.954 19.56 249.954 16.2C249.954 12.84 251.027 10.1333 253.174 8.08C255.414 6.02667 258.121 5 261.294 5C264.561 5 267.267 6.02667 269.414 8.08C271.561 10.1333 272.634 12.84 272.634 16.2C272.634 19.56 271.561 22.2667 269.414 24.32C267.267 26.3733 264.561 27.4 261.294 27.4Z" stroke="black" stroke-width="10" mask="url(#path-1-outside-1_362_41)"/>
<path d="M289.102 104.96V6.96H350.702V23.76H307.582V47.42H347.342V64.22H307.582V104.96H289.102Z" stroke="black" stroke-width="10" mask="url(#path-1-outside-1_362_41)"/>
<path d="M364.447 104.96V35.52H382.087V104.96H364.447ZM373.267 27.4C370.093 27.4 367.387 26.3733 365.147 24.32C363 22.2667 361.927 19.56 361.927 16.2C361.927 12.84 363 10.1333 365.147 8.08C367.387 6.02667 370.093 5 373.267 5C376.533 5 379.24 6.02667 381.387 8.08C383.533 10.1333 384.607 12.84 384.607 16.2C384.607 19.56 383.533 22.2667 381.387 24.32C379.24 26.3733 376.533 27.4 373.267 27.4Z" stroke="black" stroke-width="10" mask="url(#path-1-outside-1_362_41)"/>
<path d="M401.634 104.96V35.52H418.994V44.62H421.514C422.634 42.1933 424.734 39.9067 427.814 37.76C430.894 35.52 435.561 34.4 441.814 34.4C447.228 34.4 451.941 35.66 455.954 38.18C460.061 40.6067 463.234 44.0133 465.474 48.4C467.714 52.6933 468.834 57.7333 468.834 63.52V104.96H451.194V64.92C451.194 59.6933 449.888 55.7733 447.274 53.16C444.754 50.5467 441.114 49.24 436.354 49.24C430.941 49.24 426.741 51.06 423.754 54.7C420.768 58.2467 419.274 63.24 419.274 69.68V104.96H401.634Z" stroke="black" stroke-width="10" mask="url(#path-1-outside-1_362_41)"/>
<path d="M509.464 106.92C504.517 106.92 500.084 106.08 496.164 104.4C492.244 102.627 489.117 100.107 486.784 96.84C484.544 93.48 483.424 89.42 483.424 84.66C483.424 79.9 484.544 75.9333 486.784 72.76C489.117 69.4933 492.29 67.0667 496.304 65.48C500.41 63.8 505.077 62.96 510.304 62.96H529.344V59.04C529.344 55.7733 528.317 53.1133 526.264 51.06C524.21 48.9133 520.944 47.84 516.464 47.84C512.077 47.84 508.81 48.8667 506.664 50.92C504.517 52.88 503.117 55.4467 502.464 58.62L486.224 53.16C487.344 49.6133 489.117 46.3933 491.544 43.5C494.064 40.5133 497.377 38.1333 501.484 36.36C505.684 34.4933 510.77 33.56 516.744 33.56C525.89 33.56 533.124 35.8467 538.444 40.42C543.764 44.9933 546.424 51.62 546.424 60.3V86.2C546.424 89 547.73 90.4 550.344 90.4H555.944V104.96H544.184C540.73 104.96 537.884 104.12 535.644 102.44C533.404 100.76 532.284 98.52 532.284 95.72V95.58H529.624C529.25 96.7 528.41 98.1933 527.104 100.06C525.797 101.833 523.744 103.42 520.944 104.82C518.144 106.22 514.317 106.92 509.464 106.92ZM512.544 92.64C517.49 92.64 521.504 91.2867 524.584 88.58C527.757 85.78 529.344 82.0933 529.344 77.52V76.12H511.564C508.297 76.12 505.73 76.82 503.864 78.22C501.997 79.62 501.064 81.58 501.064 84.1C501.064 86.62 502.044 88.6733 504.004 90.26C505.964 91.8467 508.81 92.64 512.544 92.64Z" stroke="black" stroke-width="10" mask="url(#path-1-outside-1_362_41)"/>
<path d="M568.841 104.96V35.52H586.201V44.62H588.721C589.841 42.1933 591.941 39.9067 595.021 37.76C598.101 35.52 602.768 34.4 609.021 34.4C614.435 34.4 619.148 35.66 623.161 38.18C627.268 40.6067 630.441 44.0133 632.681 48.4C634.921 52.6933 636.041 57.7333 636.041 63.52V104.96H618.401V64.92C618.401 59.6933 617.095 55.7733 614.481 53.16C611.961 50.5467 608.321 49.24 603.561 49.24C598.148 49.24 593.948 51.06 590.961 54.7C587.975 58.2467 586.481 63.24 586.481 69.68V104.96H568.841Z" stroke="black" stroke-width="10" mask="url(#path-1-outside-1_362_41)"/>
<path d="M687.731 106.92C681.011 106.92 674.897 105.52 669.391 102.72C663.977 99.92 659.684 95.86 656.511 90.54C653.337 85.22 651.751 78.78 651.751 71.22V69.26C651.751 61.7 653.337 55.26 656.511 49.94C659.684 44.62 663.977 40.56 669.391 37.76C674.897 34.96 681.011 33.56 687.731 33.56C694.357 33.56 700.051 34.7267 704.811 37.06C709.571 39.3933 713.397 42.6133 716.291 46.72C719.277 50.7333 721.237 55.3067 722.171 60.44L705.091 64.08C704.717 61.28 703.877 58.76 702.571 56.52C701.264 54.28 699.397 52.5067 696.971 51.2C694.637 49.8933 691.697 49.24 688.151 49.24C684.604 49.24 681.384 50.0333 678.491 51.62C675.691 53.1133 673.451 55.4 671.771 58.48C670.184 61.4667 669.391 65.1533 669.391 69.54V70.94C669.391 75.3267 670.184 79.06 671.771 82.14C673.451 85.1267 675.691 87.4133 678.491 89C681.384 90.4933 684.604 91.24 688.151 91.24C693.471 91.24 697.484 89.8867 700.191 87.18C702.991 84.38 704.764 80.74 705.511 76.26L722.591 80.32C721.377 85.2667 719.277 89.7933 716.291 93.9C713.397 97.9133 709.571 101.087 704.811 103.42C700.051 105.753 694.357 106.92 687.731 106.92Z" stroke="black" stroke-width="10" mask="url(#path-1-outside-1_362_41)"/>
<path d="M768.782 106.92C761.875 106.92 755.762 105.473 750.442 102.58C745.215 99.5933 741.109 95.44 738.122 90.12C735.229 84.7067 733.782 78.36 733.782 71.08V69.4C733.782 62.12 735.229 55.82 738.122 50.5C741.015 45.0867 745.075 40.9333 750.302 38.04C755.529 35.0533 761.595 33.56 768.502 33.56C775.315 33.56 781.242 35.1 786.282 38.18C791.322 41.1667 795.242 45.3667 798.042 50.78C800.842 56.1 802.242 62.3067 802.242 69.4V75.42H751.702C751.889 80.18 753.662 84.0533 757.022 87.04C760.382 90.0267 764.489 91.52 769.342 91.52C774.289 91.52 777.929 90.4467 780.262 88.3C782.595 86.1533 784.369 83.7733 785.582 81.16L800.002 88.72C798.695 91.1467 796.782 93.8067 794.262 96.7C791.835 99.5 788.569 101.927 784.462 103.98C780.355 105.94 775.129 106.92 768.782 106.92ZM751.842 62.26H784.322C783.949 58.2467 782.315 55.0267 779.422 52.6C776.622 50.1733 772.935 48.96 768.362 48.96C763.602 48.96 759.822 50.1733 757.022 52.6C754.222 55.0267 752.495 58.2467 751.842 62.26Z" stroke="black" stroke-width="10" mask="url(#path-1-outside-1_362_41)"/>
</svg>
